<?xml version="1.0" encoding="utf-8"?>
<!-- Generator: Adobe Illustrator 16.0.0, SVG Export Plug-In . SVG Version: 6.00 Build 0)  -->
<!DOCTYPE svg PUBLIC "-//W3C//DTD SVG 1.1//EN" "http://www.w3.org/Graphics/SVG/1.1/DTD/svg11.dtd">
<svg version="1.1" id="Layer_1" xmlns="http://www.w3.org/2000/svg" xmlns:xlink="http://www.w3.org/1999/xlink" x="0px" y="0px"
	 width="700px" height="100px" viewBox="0 0 700 100" enable-background="new 0 0 700 100" xml:space="preserve">
<g>
	<path fill="#add6d2" d="M174.637,48.113c5.988,20.359-4.791,40.719-26.348,44.313c-32.492,5.416-47.818-28.768-67.098-48.053
		c-12.792-12.794-23.981-25.729-43.92-22.576C15.685,25.21,4.737,45.48,10.556,65.889L9.548,50.613
		C3.729,30.205,14.677,9.935,36.263,6.521c19.939-3.153,31.128,9.782,43.92,22.576c19.28,19.284,34.606,53.469,67.098,48.052
		c21.557-3.593,32.335-23.952,26.348-44.311L174.637,48.113z"/>
</g>
<g>
	<path fill="#A8D48C" d="M305.303,48.113c5.988,20.359-4.791,40.719-26.348,44.313c-32.492,5.416-47.818-28.768-67.098-48.053
		c-12.792-12.794-23.981-25.729-43.92-22.576c-21.585,3.414-32.534,23.684-26.714,44.092l-1.008-15.275
		c-5.819-20.409,5.129-40.678,26.714-44.092c19.939-3.153,31.128,9.782,43.92,22.576c19.28,19.284,34.606,53.469,67.098,48.052
		c21.557-3.593,32.335-23.952,26.348-44.311L305.303,48.113z"/>
</g>
<g>
	<path fill="#add6d2" d="M435.165,48.593c5.988,20.359-4.79,40.719-26.348,44.313C376.325,98.321,361,64.138,341.72,44.853
		c-12.792-12.794-23.981-25.729-43.92-22.576c-21.585,3.414-32.534,23.684-26.714,44.092l-1.008-15.275
		c-5.819-20.409,5.129-40.678,26.714-44.092c19.939-3.153,31.128,9.782,43.92,22.576c19.28,19.284,34.605,53.469,67.098,48.052
		c21.558-3.593,32.336-23.952,26.348-44.311L435.165,48.593z"/>
</g>
<g>
	<path fill="#A8D48C" d="M562.068,50.113c5.988,20.359-4.79,40.719-26.348,44.313c-32.492,5.416-47.817-28.768-67.099-48.053
		c-12.792-12.794-23.98-25.729-43.92-22.576c-21.586,3.414-32.533,23.684-26.715,44.092l-1.008-15.275
		c-5.818-20.409,5.129-40.679,26.715-44.092c19.939-3.153,31.128,9.782,43.92,22.576c19.281,19.284,34.606,53.469,67.099,48.051
		c21.558-3.592,32.335-23.951,26.348-44.311L562.068,50.113z"/>
</g>
<g>
	<path fill="#add6d2" d="M692.735,46.113c5.988,20.36-4.791,40.719-26.348,44.313c-32.492,5.416-47.818-28.768-67.099-48.053
		c-12.792-12.794-23.981-25.729-43.921-22.576c-21.585,3.414-32.533,23.684-26.714,44.092l-1.008-15.275
		c-5.819-20.409,5.129-40.679,26.714-44.092c19.939-3.153,31.129,9.782,43.921,22.576c19.28,19.284,34.606,53.469,67.099,48.051
		c21.557-3.592,32.335-23.951,26.348-44.311L692.735,46.113z"/>
</g>
</svg>
